# Pyramid.obj
#
g Pyramid

# Vertex Positions, Colors, Texture Coordinates, and Normals
v -0.5  0.0  0.5
v -0.5  0.0 -0.5
v  0.5  0.0 -0.5
v  0.5  0.0  0.5
v -0.5  0.0  0.5
v -0.5  0.0 -0.5
v  0.0  0.8  0.0
v -0.5  0.0 -0.5
v  0.5  0.0 -0.5
v  0.0  0.8  0.0
v  0.5  0.0 -0.5
v  0.5  0.0  0.5
v  0.0  0.8  0.0
v  0.5  0.0  0.5
v -0.5  0.0  0.5
v  0.0  0.8  0.0

# Texture Coordinates
vt 0.0 0.0
vt 0.0 5.0
vt 5.0 5.0
vt 5.0 0.0
vt 0.0 0.0
vt 5.0 0.0
vt 2.5 5.0
vt 5.0 0.0
vt 0.0 0.0
vt 2.5 5.0
vt 0.0 0.0
vt 5.0 0.0
vt 2.5 5.0
vt 5.0 0.0
vt 0.0 0.0
vt 2.5 5.0

# Normals
vn 0.0 -1.0 0.0
vn 0.0 -1.0 0.0
vn 0.0 -1.0 0.0
vn 0.0 -1.0 0.0
vn -0.8 0.5 0.0
vn -0.8 0.5 0.0
vn -0.8 0.5 0.0
vn 0.0 0.5 -0.8
vn 0.0 0.5 -0.8
vn 0.0 0.5 -0.8
vn 0.8 0.5 0.0
vn 0.8 0.5 0.0
vn 0.8 0.5 0.0
vn 0.0 0.5 0.8
vn 0.0 0.5 0.8
vn 0.0 0.5 0.8

# Faces
f 1/1/1 2/2/2 3/3/3
f 1/1/1 3/3/3 4/4/4
f 5/5/5 7/7/7 6/6/6
f 8/8/8 10/10/10 9/9/9
f 11/11/11 13/13/13 12/12/12
f 14/14/14 16/16/16 15/15/15